<svg width="113" height="98" viewBox="0 0 113 98" fill="none" xmlns="http://www.w3.org/2000/svg">
<path d="M56.517 97.4545L9.78977 50.7273C6.0625 47 3.57765 42.6667 2.33523 37.7273C1.12311 32.7879 1.13826 27.8788 2.38068 23C3.62311 18.0909 6.0928 13.8182 9.78977 10.1818C13.5777 6.45454 17.8958 3.98485 22.7443 2.77273C27.6231 1.5303 32.4867 1.5303 37.3352 2.77273C42.214 4.01515 46.5474 6.48485 50.3352 10.1818L56.517 16.1818L62.6989 10.1818C66.517 6.48485 70.8504 4.01515 75.6989 2.77273C80.5474 1.5303 85.3958 1.5303 90.2443 2.77273C95.1231 3.98485 99.4564 6.45454 103.244 10.1818C106.941 13.8182 109.411 18.0909 110.653 23C111.896 27.8788 111.896 32.7879 110.653 37.7273C109.441 42.6667 106.972 47 103.244 50.7273L56.517 97.4545Z" fill="#FF0000"/>
</svg>
